<?xml version="1.0" standalone="no"?>
<!DOCTYPE svg PUBLIC "-//W3C//DTD SVG 20010904//EN"
 "http://www.w3.org/TR/2001/REC-SVG-20010904/DTD/svg10.dtd">
<svg version="1.0" xmlns="http://www.w3.org/2000/svg"
 width="666.000000pt" height="666.000000pt" viewBox="0 0 666.000000 666.000000"
 preserveAspectRatio="xMidYMid meet">
<metadata>
Created by potrace 1.14, written by Peter Selinger 2001-2017
</metadata>
<g transform="translate(0.000000,666.000000) scale(0.100000,-0.100000)"
fill="#000000" stroke="none">
<path d="M0 3330 l0 -3330 3330 0 3330 0 0 3330 0 3330 -3330 0 -3330 0 0
-3330z m3267 1561 c76 -105 141 -190 146 -190 4 -1 7 85 7 189 l0 190 898 0
898 0 250 -442 c137 -243 250 -448 252 -455 2 -8 -110 -214 -249 -458 l-252
-445 -898 0 -899 0 -2 197 -3 197 -145 -197 -145 -197 -750 0 -750 0 -197 197
c-109 109 -198 202 -198 206 0 5 356 7 790 6 l790 -3 62 73 c70 83 71 69 -14
178 l-50 63 -607 0 -608 0 -181 176 c-100 97 -182 180 -182 185 0 5 324 9 793
9 l792 1 58 74 c31 41 57 78 57 83 0 5 -27 41 -60 80 l-61 72 -592 0 -592 0
-200 200 -200 200 952 0 951 0 139 -189z m-1564 -2092 c49 -13 105 -63 128
-114 14 -31 19 -65 19 -147 l0 -108 -115 0 -115 0 0 62 c0 97 -2 98 -191 98
-130 0 -160 -3 -173 -16 -14 -13 -16 -60 -16 -356 0 -304 2 -343 17 -360 14
-16 34 -18 167 -18 200 0 196 -2 196 130 l0 99 -107 3 -108 3 0 105 0 105 223
3 223 2 -3 -264 -3 -264 -30 -44 c-20 -28 -49 -53 -85 -71 l-55 -28 -262 3
-261 3 -44 30 c-50 36 -84 83 -98 137 -7 24 -10 186 -8 446 3 395 4 408 25
447 11 22 34 52 50 67 56 54 77 57 343 58 141 0 261 -5 283 -11z m3745 -5 c47
-19 88 -58 115 -109 17 -32 21 -59 21 -140 l1 -100 -112 -3 -113 -3 0 56 c0
89 -11 95 -177 95 -172 0 -173 -1 -173 -111 0 -57 4 -82 16 -93 8 -9 17 -16
20 -16 36 0 382 -87 421 -106 62 -30 120 -93 130 -143 13 -62 9 -312 -5 -354
-20 -55 -59 -97 -117 -123 -48 -23 -59 -24 -286 -24 l-235 0 -55 28 c-35 17
-64 42 -84 70 -29 42 -30 49 -33 163 l-4 119 111 0 111 0 0 -60 c0 -96 8 -100
187 -100 185 0 183 -1 183 120 0 64 -4 91 -15 100 -8 6 -101 31 -208 55 -244
54 -305 84 -346 169 -19 37 -21 61 -21 202 0 176 10 213 68 267 53 51 86 56
335 57 184 0 235 -3 265 -16z m-2649 -566 c102 -315 186 -579 189 -585 3 -10
-25 -13 -121 -13 l-126 0 -15 53 c-8 28 -25 87 -37 130 l-22 77 -191 0 -192 0
-38 -130 -39 -130 -118 0 c-69 0 -119 4 -119 10 0 7 345 1091 365 1148 3 9 41
12 142 12 l139 0 183 -572z m591 -13 l0 -585 -120 0 -120 0 0 585 0 585 120 0
120 0 0 -585z m723 188 l212 -393 3 395 2 395 110 0 110 0 0 -585 0 -585 -127
0 -128 0 -205 381 c-113 210 -210 389 -217 398 -10 13 -12 -67 -13 -381 l0
-398 -110 0 -110 0 0 585 0 586 131 -3 130 -3 212 -392z"/>
<path d="M4328 4673 l-368 -3 0 -495 0 -496 451 3 451 3 135 240 c74 132 136
245 136 250 0 10 -256 468 -275 493 -7 8 -35 11 -87 10 -42 -2 -241 -4 -443
-5z"/>
<path d="M3368 4307 c-20 -29 -49 -68 -63 -89 l-27 -36 67 -91 c37 -50 68 -91
71 -91 2 0 4 81 4 180 0 99 -3 180 -7 180 -5 -1 -25 -24 -45 -53z"/>
<path d="M2416 2337 c-32 -111 -61 -208 -64 -214 -3 -10 25 -13 122 -13 69 0
126 2 126 5 0 10 -112 400 -119 412 -3 6 -33 -79 -65 -190z"/>
</g>
</svg>
